<?xml version="1.0" encoding="utf-8"?>
<!-- Generator: Adobe Illustrator 21.1.0, SVG Export Plug-In . SVG Version: 6.00 Build 0)  -->
<svg version="1.1" id="Layer_1" xmlns="http://www.w3.org/2000/svg" xmlns:xlink="http://www.w3.org/1999/xlink" x="0px" y="0px"
	 viewBox="0 0 3000 3000" style="enable-background:new 0 0 3000 3000;" xml:space="preserve">
<style type="text/css">
	.st0{fill:#C3002F;stroke:#000000;stroke-miterlimit:10;}
	.st1{fill:#DD0031;stroke:#000000;stroke-miterlimit:10;}
	.st2{fill:#FFFFFF;}
	.st3{fill:#34BDB2;stroke:#000000;stroke-miterlimit:10;}
</style>
<g>
	<g>
		<path class="st0" d="M236.1,921l1136.4-256.6c139.5-31.5,278.1,56,309.6,195.5c21.1,93.5-11.2,186.5-76.9,247.3l0.1,0.3
			l207.1,917.3L423.5,2338.5l-207.1-917.3l-0.1-0.3c-85.3-26.6-154.6-96.8-175.7-190.2C9.1,1091.1,96.7,952.5,236.1,921z"/>
		<path class="st1" d="M1118,2181.6l-694.5,156.8l-207.1-917.3l-0.1-0.3c-85.3-26.6-154.6-96.8-175.7-190.2
			C9.1,1091.1,96.7,952.5,236.1,921l568.2-128.3"/>
		<path class="st2" d="M840.8,950.7L604.6,2131.4l0,0l178.4-40.3l0,0l42-261.7l406-91.7l150.4,218.3l0,0l178.4-40.3l0,0L840.8,950.7
			L840.8,950.7L840.8,950.7L840.8,950.7L840.8,950.7z M1135.1,1603.8l-279.5,63.1l63.8-367.7L1135.1,1603.8z"/>
	</g>
	<g>
		<path class="st3" d="M1625,672.6l1137.6,251.1c139.6,30.8,227.8,169,197,308.6c-20.7,93.6-89.5,164.1-174.7,191.1l-0.1,0.3
			L2582.2,2342l-1390.4-306.9l202.7-918.3l0.1-0.3c-65.9-60.4-98.7-153.3-78.1-246.9C1347.2,730,1485.4,641.8,1625,672.6z"/>
		<path class="st2" d="M2345.6,1302.6c-72.7-66.8-138.4-121.2-235.6-140.9c-55.6-11.3-109.9,8.4-132,61.3
			c-20.6,49.2,18.7,87.8,62.3,115.7c72.3,46.3,134,92,204.2,141.3c127.6,89.6,178.7,200.3,143.4,320.1
			c-45,152.4-162.7,242.9-318.9,246.9c-204.1,5.1-375.9-109.2-512.2-246c53.5-52.2,109.2-83.6,162.5-135.5
			c83.1,59.3,143.5,128,237.7,157.4c66.4,20.7,143.8,34.4,176.5-41.7c29.5-68.6-24.4-120.8-80.5-155.7
			c-66.8-41.5-132.2-88.7-196.8-133.4c-119.5-82.6-149.7-199.3-113.5-320.9c16-72.5,108.4-205.6,265.9-218.6
			c241.9-20,350.9,79.2,491.8,221C2443.9,1221.5,2401.3,1255.1,2345.6,1302.6"/>
	</g>
</g>
</svg>
