<?xml version="1.0" encoding="utf-8"?>
<!-- Generator: Adobe Illustrator 21.1.0, SVG Export Plug-In . SVG Version: 6.00 Build 0)  -->
<svg version="1.1" xmlns="http://www.w3.org/2000/svg" xmlns:xlink="http://www.w3.org/1999/xlink" x="0px" y="0px"
	 viewBox="0 0 3000 3000" style="enable-background:new 0 0 3000 3000;" xml:space="preserve">
<style type="text/css">
	.st0{fill:#34BDB2;}
	.st1{fill:#FFFFFF;}
</style>
<g id="Layer_1">
	<rect class="st0" width="3000" height="3000"/>
	<path class="st1" d="M1897,1110.5c-132-76.6-249.2-136.8-402.4-134.2c-87.7,1.5-163,49.2-178.8,136.4
		c-14.7,81.2,57.4,126.2,132.5,153.8c124.5,45.8,232.9,94.2,355.2,145.2c222.4,92.7,336.4,242.7,322.9,435.3
		c-17.1,245-164.6,420.7-398.9,478.6c-306.2,75.7-603.5-39.6-854.7-200.6c63.4-96.6,137-162.5,200-258.5
		c145.1,61.8,259.2,145.3,411,158.3c107.1,9.2,228.4,4.1,252.4-121.7c21.7-113.4-77-174.2-173.3-208.1
		c-114.6-40.4-229-89.9-341.4-135.8c-207.7-84.9-292.3-250.8-278-446.3c0-114.6,95.1-346.3,328.3-418.4
		c358.3-110.7,555.7,2.7,815.6,169.6C2018.3,955.4,1965.2,1020.3,1897,1110.5"/>
</g>
<g id="Layer_2">
	<g>
		<path class="st1" d="M2312.5,500.3c193.3,0,350,156.7,350,350c0,124.5-65,233.9-163,295.9v0.6l0.5,1352.5v0.5H500v-0.5l0.5-1352.5
			v-0.6c-98-62-163-171.4-163-295.9c0-193.3,156.7-350,350-350H2312.5 M2312.5,300.3h-1625c-74.2,0-146.2,14.6-214.1,43.3
			c-32.6,13.8-64.1,30.9-93.5,50.7c-29.1,19.6-56.4,42.2-81.3,67c-24.8,24.8-47.4,52.2-67,81.3c-19.9,29.4-36.9,60.9-50.7,93.5
			c-28.7,67.9-43.3,140-43.3,214.1c0,47.8,6.2,95.4,18.4,141.4c11.9,44.7,29.4,87.8,52.1,128.1c25.1,44.5,56.3,85.4,92.5,121.2
			L300,2499.2v0v0v0.5v200h200h2000h200v-200v-0.5v0v0l-0.5-1258.2c36.2-35.9,67.4-76.7,92.5-121.2c22.7-40.3,40.2-83.4,52.1-128.1
			c12.2-46,18.4-93.5,18.4-141.4c0-74.2-14.6-146.2-43.3-214.1c-13.8-32.6-30.9-64.1-50.7-93.5c-19.6-29.1-42.2-56.4-67-81.3
			c-24.8-24.8-52.2-47.4-81.3-67c-29.4-19.9-60.9-36.9-93.5-50.7C2458.7,314.8,2386.7,300.3,2312.5,300.3L2312.5,300.3z"/>
	</g>
</g>
</svg>
